<?xml version="1.0" encoding="UTF-8" standalone="no"?>
<svg
   xmlns:dc="http://purl.org/dc/elements/1.1/"
   xmlns:cc="http://creativecommons.org/ns#"
   xmlns:rdf="http://www.w3.org/1999/02/22-rdf-syntax-ns#"
   xmlns:svg="http://www.w3.org/2000/svg"
   xmlns="http://www.w3.org/2000/svg"
   xmlns:xlink="http://www.w3.org/1999/xlink"
   xmlns:sodipodi="http://sodipodi.sourceforge.net/DTD/sodipodi-0.dtd"
   xmlns:inkscape="http://www.inkscape.org/namespaces/inkscape"
   enable-background="new 0 0 316.2 102"
   version="1.1"
   viewBox="0 0 699.99997 700"
   xml:space="preserve"
   id="svg112"
   sodipodi:docname="mercado-todo-dia-logo.svg"
   width="700"
   height="700"
   inkscape:version="0.92.4 (5da689c313, 2019-01-14)"><metadata
     id="metadata116"><rdf:RDF><cc:Work
         rdf:about=""><dc:format>image/svg+xml</dc:format><dc:type
           rdf:resource="http://purl.org/dc/dcmitype/StillImage" /><dc:title></dc:title></cc:Work></rdf:RDF></metadata><sodipodi:namedview
     pagecolor="#ffffff"
     bordercolor="#666666"
     borderopacity="1"
     objecttolerance="10"
     gridtolerance="10"
     guidetolerance="10"
     inkscape:pageopacity="0"
     inkscape:pageshadow="2"
     inkscape:window-width="1600"
     inkscape:window-height="837"
     id="namedview114"
     showgrid="false"
     inkscape:zoom="0.52814672"
     inkscape:cx="117.73068"
     inkscape:cy="191.11774"
     inkscape:window-x="-8"
     inkscape:window-y="-8"
     inkscape:window-maximized="1"
     inkscape:current-layer="svg112" /><style
     type="text/css"
     id="style2">
	.st0{clip-path:url(#a);fill:#FFFFFF;}
	.st1{clip-path:url(#a);fill:#F0B500;}
	.st2{clip-path:url(#a);fill:#007D47;}
	.st3{fill:#007D47;}
	.st4{clip-path:url(#b);fill:#007D47;}
	.st5{clip-path:url(#b);fill:#ABCC58;}
	.st6{clip-path:url(#f);fill:#007D47;}
	.st7{clip-path:url(#d);fill:#007D47;}
	.st8{clip-path:url(#n);fill:#007D47;}
	.st9{clip-path:url(#l);fill:#007D47;}
	.st10{clip-path:url(#j);fill:#007D47;}
</style><defs
     id="defs5"><rect
       id="i"
       width="316.20001"
       height="102"
       x="0"
       y="0" /></defs><clipPath
     id="a"><use
       xlink:href="#i"
       id="use7"
       x="0"
       y="0"
       width="100%"
       height="100%" /></clipPath><path
     class="st0"
     d="m 314.8,84.8 c -0.6,-0.7 -1.3,-1.3 -2.1,-1.7 0,-1.1 -0.2,-2.1 -0.5,-2.9 v -0.7 c 0,-0.7 -0.1,-1.3 -0.3,-1.9 1.8,-1.1 2.9,-3.1 2.9,-5.3 v -0.7 c 0,-1.1 -0.3,-2.2 -0.9,-3.2 0,-0.2 0.1,-0.5 0.1,-0.7 v -0.1 l 1.5,-9.7 c 0.2,-0.9 0.3,-1.8 0.3,-2.7 0.1,-0.9 0.1,-1.7 0.1,-2.4 0,-4.9 -2.2,-9 -6.1,-11.6 -3.3,-2.2 -7.5,-3.2 -13,-3.2 -3.1,0 -5.8,0.3 -8.1,0.9 l 0.3,-2.3 c 0.2,-1.8 -0.3,-3.6 -1.5,-5 -1.2,-1.4 -2.9,-2.2 -4.8,-2.2 h -10.4 c -2.6,0 -4.9,1.6 -5.9,3.9 -1.3,-1 -2.6,-1.7 -4.1,-2.3 -2.8,-1.1 -6.4,-1.7 -10.9,-1.7 h -14.5 c -3.1,0 -5.8,2.3 -6.3,5.4 l -0.9,6.4 c -3.4,-2.1 -7.4,-3.2 -12.2,-3.2 -3,0 -5.7,0.4 -8.2,1.2 l 0.4,-2.6 c 0.2,-1.8 -0.3,-3.6 -1.5,-5 -1.2,-1.4 -2.9,-2.2 -4.8,-2.2 h -10.3 c -3.1,0 -5.8,2.3 -6.3,5.4 l -0.5,3.5 c -1,-0.2 -2,-0.2 -3,-0.2 -4.6,0 -8.8,1.7 -12.1,4.9 -3.8,-3.3 -8.7,-5 -14.6,-5 h -1 l 0.2,-1.2 c 0.3,-1.8 -0.2,-3.7 -1.4,-5.1 -1.2,-1.4 -3,-2.2 -4.8,-2.2 H 118 c -2,0 -3.8,0.9 -4.9,2.4 0.3,-2.8 -0.1,-5.5 -1.3,-8 -4,-8.5 -16,-12.6 -36.6,-12.6 -14.7,0 -30.7,2.2 -37.4,3.6 -0.1,0 -0.2,0 -0.3,0.1 -1.1,-2 -2.2,-3.8 -3.6,-5.5 C 29.3,3.4 23,0 16.7,0 12,0 7.7,1.8 4.2,5.1 0.4,8.8 -1,13.4 0.6,17.4 c 1.4,3.5 4.8,5.7 8.8,5.7 3,0 6,-1.2 8.8,-3.5 0.4,-0.4 0.8,-0.6 1,-0.8 0.6,0.7 1.6,2.3 3.1,6 3.9,9.2 6,24.2 6.6,33.1 -3.6,5.1 -6.5,13.8 -3.6,23.5 -2.4,6.3 -1.3,10.6 0.3,13.2 2.2,3.7 6.3,5.8 11.2,5.8 4.8,0 9.6,-2 12.9,-5.3 1.5,-1.5 2.6,-3.2 3.3,-5.1 4.3,-0.7 8.7,-1 13.4,-1 1.8,0 3.7,0.1 5.7,0.2 0,2.2 0.6,3.9 1.2,5 2,4 6.5,6.5 11.8,6.5 4.3,0 8.5,-1.7 11.5,-4.7 3,-3 4.5,-6.9 4.5,-11.4 0,-4.6 -2.1,-8.2 -5.6,-10.2 l 1.1,-1.9 c 1,-1.8 1.1,-3.9 0.2,-5.8 -0.9,-1.8 -2.6,-3.2 -4.6,-3.5 l -0.4,-0.1 c 2.9,-2.8 6.9,-7.4 13.1,-15.1 0.2,-0.3 0.4,-0.5 0.4,-0.5 2.6,-3.1 4.5,-6.2 5.8,-9 l -0.9,5.6 c -0.3,1.8 0.2,3.7 1.4,5.1 1.2,1.4 3,2.2 4.8,2.2 h 3 l -2.9,20 v 0.2 c -1.8,0.8 -3.1,2.5 -3.5,4.5 l -2.9,14 c -0.4,1.9 0.1,3.8 1.3,5.3 1.2,1.5 3,2.3 4.9,2.3 h 2.6 c 1.4,0 2.6,-0.4 3.7,-1.2 1.1,0.7 2.3,1.2 3.7,1.2 h 2.4 c 1.1,0 2.1,-0.3 3,-0.7 1.1,0.6 2.6,1 4.5,1.1 0.1,0.1 0.1,0.2 0.1,0.3 0.8,1.6 2.2,2.7 3.9,3.2 0.6,0.2 1.2,0.3 1.7,0.4 h 0.2 c 0.7,0.1 1.4,0.2 2,0.2 2.9,0 4.8,-1.1 6,-2.1 0.8,-0.6 1.4,-1.4 1.8,-2.3 0.6,0.1 1.2,0.2 2,0.2 1.7,0 3.3,-0.4 4.6,-1 0.4,-0.2 0.8,-0.4 1.1,-0.7 1.1,0.9 2.5,1.4 3.9,1.4 h 2.5 c 0.7,0.2 1.3,0.2 2,0.2 1.2,0 2.4,-0.2 3.5,-0.7 1.1,0.5 2.4,0.8 3.8,0.8 0.8,0 1.6,-0.1 2.4,-0.3 h 1.8 c 0.3,0 0.6,0 1,-0.1 0.3,0 0.6,0.1 1,0.1 h 2.4 0.7 0.6 2.6 c 0.4,0 0.8,0 1.2,-0.1 0.4,0.1 0.8,0.1 1.2,0.1 h 2.4 c 0.5,0 1,-0.1 1.4,-0.2 1,0.3 2.1,0.5 3.4,0.5 1.1,0 2.2,-0.2 3.2,-0.5 0.2,0.5 0.5,0.9 0.8,1.3 1.2,1.5 3,2.3 4.9,2.3 h 2.4 c 2.5,0 4.8,-1.5 5.8,-3.8 0.3,-0.1 0.6,-0.2 0.9,-0.4 1.2,0.5 2.6,0.9 4.5,0.9 1.3,0 2.5,-0.2 3.5,-0.5 0.5,0.1 1,0.2 1.5,0.2 h 2.4 c 1,0 2,-0.3 2.9,-0.7 1,0.5 2.2,0.8 3.8,0.8 h 1 0.1 c 0.3,0 0.6,-0.1 1,-0.1 0.3,0 0.5,-0.1 0.8,-0.2 1,0.4 2.2,0.6 3.6,0.6 1.7,0 3.2,-0.4 4.6,-1.1 0.7,-0.3 1.3,-0.8 1.9,-1.3 1.5,1.5 3.6,2.3 5.9,2.3 0.8,0 1.6,-0.1 2.4,-0.3 h 1.7 c 0.7,0 1.4,-0.1 2.1,-0.3 1.1,0.4 2.4,0.7 3.9,0.7 3.1,0 5.3,-1.2 6.6,-2.4 1.2,1.2 2.8,2 4.6,2 h 2.7 c 1,0 2,-0.2 2.8,-0.7 1.2,0.6 2.7,1 4.7,1 1.6,0 3.1,-0.3 4.4,-0.9 1.2,0.5 2.6,0.9 4.4,0.9 1.5,0 3,-0.3 4.2,-0.9 1.1,0.5 2.6,0.9 4.4,0.9 1.3,0 2.5,-0.2 3.5,-0.6 0.5,0.1 1,0.2 1.6,0.2 h 2.4 c 3,0 5.6,-2.1 6.2,-5 L 316,90 c 0.4,-1.8 0,-3.7 -1.2,-5.2"
     clip-path="url(#a)"
     id="path10"
     inkscape:connector-curvature="0"
     style="fill:#ffffff"
     transform="matrix(1.6825486,0,0,1.6825486,84.03113,264.19002)" /><path
     class="st1"
     d="m 39.9,22.1 c 18.7,-0.3 39,6.3 57.1,0.8 6.1,-1.9 -16.1,41.5 -16.1,40.6 -0.5,-7.4 -38.2,-6.9 -38,-7.1 5.3,-5.6 1.2,-36 -3,-34.3"
     clip-path="url(#a)"
     id="path12"
     inkscape:connector-curvature="0"
     style="fill:#f0b500"
     transform="matrix(1.6825486,0,0,1.6825486,84.03113,264.19002)" /><path
     class="st2"
     d="m 86.2,86.4 c -1.4,0.8 -2.1,2.2 -1.7,3 0.5,0.8 2,0.7 3.4,-0.1 1.4,-0.8 2.1,-2.2 1.7,-3 -0.4,-0.8 -2,-0.8 -3.4,0.1 M 38,86.2 c -1.4,0.8 -2.1,2.2 -1.7,3 0.5,0.8 2,0.7 3.4,-0.1 1.4,-0.9 2.1,-2.2 1.7,-3 -0.5,-0.9 -2,-0.8 -3.4,0.1 M 14.2,14.6 C 8.4,19.5 3.3,14.7 8.7,9.5 14.4,3.9 23,5.4 29,13 38.4,24.9 39.2,45.8 42.8,60.4 l 48.3,8.8 -1.1,2 c -0.6,1.1 -5.8,-0.1 -7.2,-0.4 -14.5,-3 -27.8,-2.6 -39,-1.2 -4,0.2 -6.4,2.4 -7.1,6.8 l -0.2,2.5 c 1.5,-1 18.7,-3 36.1,-0.3 3.3,0.5 5.8,1.1 9.4,0.9 2.5,-0.1 12.8,-3.4 12.8,4.7 0,14.4 -23.6,12 -14,-1.1 C 69.5,82 58.9,81.8 47.6,84.2 47.9,96.3 23.2,98.4 32.3,81.5 28.3,72 32.1,63.1 35.5,59.8 35.1,51.3 33,33.3 28.2,22.1 25,14.6 21.5,8.5 14.2,14.6"
     clip-path="url(#a)"
     id="path14"
     inkscape:connector-curvature="0"
     style="fill:#007d47"
     transform="matrix(1.6825486,0,0,1.6825486,84.03113,264.19002)" /><path
     class="st2"
     d="m 60.1,42.8 c 2.3,0.4 4.7,0.8 7.1,1.3 0.8,0.1 3.5,0.9 4.4,1.1 1.2,-3.5 2.4,-6.8 3.9,-9.9 -3.3,-0.7 -8.5,-1.9 -11.6,-2.4 -0.8,2.2 -1.5,4.3 -2.1,5.9 -0.6,1.3 -1.2,2.7 -1.7,4 m 34.5,-1.5 c -5,-2.4 -9.1,-3.6 -15.3,-5.1 -1.6,3.2 -3.1,6.5 -4.5,9.7 5,1 8.7,1.7 12.5,2.8 0.7,0.2 1.4,0.4 1.9,0.7 1.8,-2.7 3.7,-5.5 5.4,-8.1 M 86.9,23.7 c -1.7,2.1 -3.3,4.7 -4.9,7.4 3.1,1.1 11.9,1.9 15.2,5.7 2.5,-5.1 3,-9.5 -2.2,-11.6 C 92.1,24.1 90.6,24 86.9,23.7 M 66.7,23.1 c 0,0.4 -0.1,0.8 -0.2,1.2 -0.3,1.2 -0.7,2.5 -1.1,3.9 3.7,0.3 9.1,1.4 12.5,2.1 1.1,-2.2 2.4,-4.5 3.7,-6.8 C 77.2,23.4 70.8,23 66.7,23.1 M 86.1,54 C 81.7,52.1 78.4,51.1 73.2,49.7 66.9,63 67.8,54.5 70.6,49 c -2.5,-0.7 -6.9,-1.9 -9.1,-2.5 -1,-0.3 -1.8,-0.5 -2.7,-0.7 -2.7,5.9 -5,9 -2.7,-0.8 -13.1,-3.8 -8.1,-3.9 0.6,-2.6 0.1,-0.5 0.3,-1.1 0.4,-1.7 0.7,-2.6 1.5,-5.5 2.2,-8.5 -4.6,-0.7 -8.9,-1.3 -12.2,-1.9 -4.9,-0.8 9.6,-2.5 13.1,-2.4 0.3,-1.6 0.6,-3.2 0.7,-4.7 -0.6,0 -1.3,0 -1.9,-0.1 -4.3,-0.2 -20.1,0.6 -20.1,-2.4 14.3,-3 89.9,-12.5 61.4,22.6 -1,1.4 -18.5,23.8 -16.5,15.7 0.4,-1.5 1.2,-3.1 2.3,-5"
     clip-path="url(#a)"
     id="path16"
     inkscape:connector-curvature="0"
     style="fill:#007d47"
     transform="matrix(1.6825486,0,0,1.6825486,84.03113,264.19002)" /><polygon
     class="st3"
     points="149.9,35.5 118,35.5 116.5,44.8 126.8,44.8 122.8,72.1 134.4,72.1 138.4,44.8 148.3,44.8 "
     id="polygon18"
     style="fill:#007d47"
     transform="matrix(1.6825486,0,0,1.6825486,84.03113,264.19002)" /><defs
     id="defs21"><rect
       id="h"
       width="316.20001"
       height="102"
       x="0"
       y="0" /></defs><clipPath
     id="b"><use
       xlink:href="#h"
       id="use23"
       x="0"
       y="0"
       width="100%"
       height="100%" /></clipPath><path
     class="st4"
     d="m 220.1,63.2 c -0.9,1.6 -2.2,2.4 -3.8,2.4 -1.4,0 -2.4,-0.4 -3,-1.3 -0.7,-0.9 -1,-2.2 -1,-3.9 0,-2.8 0.5,-5.1 1.4,-6.6 0.9,-1.6 2.2,-2.3 3.9,-2.3 1.3,0 2.3,0.5 3,1.4 0.7,0.9 1,2.3 1,4.1 -0.1,2.5 -0.5,4.6 -1.5,6.2 m 8.3,-15.6 c -2.6,-2.3 -6.1,-3.5 -10.5,-3.5 -4.9,0 -8.8,1.4 -11.8,4.3 -2.9,2.9 -4.4,6.7 -4.4,11.5 0,4 1.3,7.2 3.9,9.6 2.6,2.4 6.1,3.5 10.6,3.5 5,0 8.9,-1.4 11.8,-4.2 2.9,-2.8 4.3,-6.7 4.3,-11.7 -0.1,-4 -1.4,-7.2 -3.9,-9.5"
     clip-path="url(#b)"
     id="path26"
     inkscape:connector-curvature="0"
     style="fill:#007d47"
     transform="matrix(1.6825486,0,0,1.6825486,84.03113,264.19002)" /><path
     class="st5"
     d="M 298.3,72.1 298,69.6 c -1.5,1.1 -3,2 -4.5,2.5 -1.5,0.6 -3.1,0.9 -4.8,0.9 -2.7,0 -4.8,-0.7 -6.4,-2.1 -1.6,-1.4 -2.4,-3.2 -2.4,-5.5 0,-3.1 1,-5.4 3,-6.9 2,-1.5 5.4,-2.5 10.3,-3 0.4,0 0.9,-0.1 1.5,-0.1 3.4,-0.3 5.2,-1.2 5.2,-2.5 0,-0.7 -0.3,-1.3 -0.9,-1.7 -0.6,-0.4 -1.4,-0.6 -2.5,-0.6 -1.2,0 -2.1,0.2 -2.7,0.7 -0.6,0.4 -1,1.1 -1.1,2.1 h -10 c 0.4,-3.1 1.8,-5.3 4.2,-6.8 2.4,-1.5 5.8,-2.3 10.3,-2.3 4.1,0 7.3,0.7 9.5,2.2 2.2,1.5 3.3,3.6 3.3,6.3 0,0.5 0,1 -0.1,1.8 -0.1,0.7 -0.2,1.5 -0.3,2.2 l -1.5,9.8 c -0.1,0.6 -0.2,1.1 -0.2,1.4 0,0.4 -0.1,0.6 -0.1,0.8 0,0.6 0.1,1.1 0.2,1.5 0.1,0.4 0.4,0.8 0.7,1.2 v 0.7 H 298.3 Z M 298.7,60 c -1.1,0.3 -2.5,0.7 -4.2,1.1 -2.8,0.6 -4.2,1.7 -4.2,3.2 0,0.7 0.2,1.2 0.7,1.6 0.5,0.4 1.2,0.6 2,0.6 1.7,0 3.1,-0.6 4.1,-1.7 1,-1.1 1.5,-2.7 1.6,-4.8 m -31.4,12.1 h 10.4 l 3.9,-27 h -10.4 z m 4.2,-29 1.1,-7.5 H 283 l -1,7.5 z m -39.7,29 5.4,-36.6 h 14.5 c 3.7,0 6.5,0.4 8.5,1.2 2,0.8 3.8,2.2 5.3,4.2 1,1.3 1.8,2.9 2.3,4.8 0.6,1.9 0.8,3.9 0.8,6.1 0,6.5 -1.7,11.5 -5.2,15 C 260,70.3 255,72 248.5,72 H 231.8 Z M 244.7,63 h 2.7 c 1.8,0 3.2,-0.1 4.2,-0.4 1,-0.3 1.8,-0.8 2.5,-1.4 0.9,-0.8 1.6,-2.1 2.1,-3.8 0.6,-1.7 0.8,-3.5 0.8,-5.4 0,-2.8 -0.5,-4.7 -1.6,-5.8 -1.1,-1.1 -2.9,-1.7 -5.5,-1.7 h -2.6 z"
     clip-path="url(#b)"
     id="path28"
     inkscape:connector-curvature="0"
     style="fill:#abcc58"
     transform="matrix(1.6825486,0,0,1.6825486,84.03113,264.19002)" /><path
     class="st4"
     d="m 146.5,80.3 c -0.7,0 -1.3,0.1 -1.8,0.4 -0.5,0.3 -0.9,0.6 -1.3,1.1 -0.3,0.4 -0.5,0.9 -0.7,1.4 -0.2,0.5 -0.4,1.3 -0.5,2.2 -0.1,0.6 -0.2,1.1 -0.2,1.6 -0.1,0.5 -0.1,0.9 -0.1,1.2 0,1.1 0.3,1.9 0.8,2.4 0.3,0.3 0.8,0.5 1.4,0.7 l 0.1,-0.2 h 1 l -0.1,0.3 c 1.2,0 2.1,-0.3 2.7,-1 0.6,-0.7 1,-1.8 1.2,-3.2 h -2.3 c -0.1,0.8 -0.3,1.5 -0.5,1.9 -0.2,0.4 -0.6,0.6 -1,0.6 -0.3,0 -0.6,-0.1 -0.7,-0.3 -0.2,-0.2 -0.2,-0.5 -0.2,-1 0,-0.5 0.1,-1.1 0.2,-1.8 0.1,-0.7 0.3,-1.6 0.6,-2.5 0.2,-0.7 0.4,-1.1 0.6,-1.4 0.2,-0.3 0.5,-0.4 0.8,-0.4 0.3,0 0.6,0.1 0.7,0.3 0.2,0.2 0.3,0.5 0.3,0.9 v 0.4 c 0,0.2 0,0.4 -0.1,0.6 h 2.3 c 0,-0.2 0.1,-0.4 0.1,-0.6 v -0.5 c 0,-1 -0.3,-1.7 -0.8,-2.2 -0.7,-0.7 -1.5,-0.9 -2.5,-0.9"
     clip-path="url(#b)"
     id="path30"
     inkscape:connector-curvature="0"
     style="fill:#007d47"
     transform="matrix(1.6825486,0,0,1.6825486,84.03113,264.19002)" /><path
     class="st4"
     d="m 304.1,83.7 c 0,0.2 -0.1,0.5 -0.1,0.8 h -2.5 c 0.2,-0.9 0.4,-1.5 0.6,-1.9 0.3,-0.4 0.6,-0.5 1.1,-0.5 0.3,0 0.6,0.1 0.8,0.3 0.2,0.2 0.3,0.4 0.3,0.8 -0.2,0 -0.2,0.2 -0.2,0.5 m -0.9,-3.4 c -1,0 -1.7,0.2 -2.3,0.6 -0.6,0.4 -1,1 -1.4,1.9 -0.2,0.4 -0.3,0.9 -0.5,1.6 -0.2,0.7 -0.3,1.4 -0.4,2.3 0,0.3 -0.1,0.6 -0.1,0.9 v 0.8 c 0,1 0.3,1.8 0.8,2.3 0.5,0.5 1.4,0.8 2.5,0.8 1.1,0 2,-0.3 2.6,-0.9 0.6,-0.6 1,-1.6 1.1,-2.9 h -2.2 c -0.1,0.7 -0.2,1.2 -0.5,1.5 -0.2,0.3 -0.6,0.5 -1,0.5 -0.4,0 -0.7,-0.1 -0.9,-0.3 -0.2,-0.2 -0.3,-0.5 -0.3,-1 0,-0.2 0,-0.5 0.1,-0.9 0.1,-0.4 0.1,-0.8 0.2,-1.3 h 4.8 c 0.1,-0.6 0.2,-1.1 0.3,-1.6 0.1,-0.5 0.1,-0.9 0.1,-1.3 0,-1 -0.3,-1.7 -0.8,-2.2 -0.2,-0.6 -1,-0.8 -2.1,-0.8"
     clip-path="url(#b)"
     id="path32"
     inkscape:connector-curvature="0"
     style="fill:#007d47"
     transform="matrix(1.6825486,0,0,1.6825486,84.03113,264.19002)" /><path
     class="st4"
     d="m 155.9,85.2 c -0.1,0.8 -0.3,1.6 -0.6,2.6 -0.2,0.7 -0.4,1.2 -0.6,1.4 -0.2,0.3 -0.5,0.4 -0.9,0.4 -0.4,0 -0.7,-0.1 -0.9,-0.3 -0.2,-0.2 -0.3,-0.5 -0.3,-1 0,-0.4 0.1,-1 0.2,-1.8 0.1,-0.8 0.3,-1.7 0.6,-2.6 0.2,-0.7 0.4,-1.2 0.6,-1.4 0.2,-0.3 0.5,-0.4 0.9,-0.4 0.4,0 0.7,0.1 0.9,0.3 0.2,0.2 0.3,0.6 0.3,1 0,0.4 0,1 -0.2,1.8 M 155,80.3 c -0.7,0 -1.3,0.1 -1.8,0.4 -0.5,0.3 -0.9,0.6 -1.3,1.1 -0.3,0.4 -0.5,0.9 -0.6,1.4 -0.2,0.5 -0.4,1.3 -0.6,2.3 -0.1,0.6 -0.2,1.1 -0.2,1.5 -0.1,0.4 -0.1,0.8 -0.1,1.1 0,1.1 0.3,1.9 0.8,2.5 0.6,0.5 1.4,0.8 2.5,0.8 0.7,0 1.3,-0.1 1.8,-0.4 0.5,-0.3 0.9,-0.6 1.2,-1.1 0.3,-0.4 0.5,-0.9 0.7,-1.5 0.2,-0.6 0.4,-1.3 0.6,-2.1 0.1,-0.5 0.2,-1 0.2,-1.5 0.1,-0.4 0.1,-0.9 0.1,-1.2 0,-1.1 -0.3,-1.9 -0.8,-2.4 -0.5,-0.6 -1.3,-0.9 -2.5,-0.9"
     clip-path="url(#b)"
     id="path34"
     inkscape:connector-curvature="0"
     style="fill:#007d47"
     transform="matrix(1.6825486,0,0,1.6825486,84.03113,264.19002)" /><path
     class="st4"
     d="m 143.5,93 c 0.5,0 0.8,0 1,0.1 0.2,0.1 0.3,0.3 0.3,0.5 0,0.2 -0.1,0.4 -0.2,0.5 -0.2,0.1 -0.4,0.2 -0.6,0.2 -0.2,0 -0.5,0 -0.7,-0.1 -0.3,-0.1 -0.6,-0.1 -0.9,-0.2 l -0.4,1.2 c 0.5,0.1 0.9,0.2 1.3,0.3 0.3,0.1 0.6,0.1 0.9,0.1 0.8,0 1.4,-0.2 1.8,-0.6 0.4,-0.4 0.6,-0.9 0.6,-1.6 0,-0.4 -0.1,-0.8 -0.4,-1.1 -0.3,-0.3 -0.7,-0.4 -1.2,-0.5 l 0.2,-0.5 c -0.4,0 -0.7,0 -1,-0.1 z"
     clip-path="url(#b)"
     id="path36"
     inkscape:connector-curvature="0"
     style="fill:#007d47"
     transform="matrix(1.6825486,0,0,1.6825486,84.03113,264.19002)" /><path
     class="st4"
     d="m 294.6,80.3 c -0.7,0 -1.3,0.1 -1.8,0.4 -0.5,0.3 -0.9,0.6 -1.3,1.1 -0.3,0.4 -0.5,0.9 -0.7,1.4 -0.2,0.5 -0.4,1.3 -0.5,2.2 -0.1,0.6 -0.2,1.1 -0.2,1.6 -0.1,0.5 -0.1,0.9 -0.1,1.2 0,1.1 0.3,1.9 0.8,2.4 0.5,0.5 1.3,0.8 2.4,0.8 1.2,0 2.1,-0.3 2.7,-1 0.6,-0.7 1,-1.8 1.2,-3.2 h -2.3 c -0.1,0.8 -0.3,1.5 -0.5,1.9 -0.2,0.4 -0.6,0.6 -1,0.6 -0.3,0 -0.6,-0.1 -0.7,-0.3 -0.1,-0.2 -0.2,-0.5 -0.2,-1 0,-0.5 0.1,-1.1 0.2,-1.8 0.1,-0.7 0.3,-1.6 0.6,-2.5 0.2,-0.7 0.4,-1.1 0.6,-1.4 0.2,-0.3 0.5,-0.4 0.8,-0.4 0.3,0 0.6,0.1 0.7,0.3 0.2,0.2 0.3,0.5 0.3,0.9 v 0.4 c 0,0.2 0,0.4 -0.1,0.6 h 2.3 c 0,-0.2 0.1,-0.4 0.1,-0.6 v -0.5 c 0,-1 -0.3,-1.7 -0.8,-2.2 -0.7,-0.7 -1.5,-0.9 -2.5,-0.9"
     clip-path="url(#b)"
     id="path38"
     inkscape:connector-curvature="0"
     style="fill:#007d47"
     transform="matrix(1.6825486,0,0,1.6825486,84.03113,264.19002)" /><polygon
     class="st3"
     points="305,79.3 305.9,79.3 304.8,77.2 303,77.2 301,79.3 302.1,79.3 303.8,78.2 "
     id="polygon40"
     style="fill:#007d47"
     transform="matrix(1.6825486,0,0,1.6825486,84.03113,264.19002)" /><defs
     id="defs43"><rect
       id="g"
       width="316.20001"
       height="102"
       x="0"
       y="0" /></defs><clipPath
     id="f"><use
       xlink:href="#g"
       id="use45"
       x="0"
       y="0"
       width="100%"
       height="100%" /></clipPath><path
     class="st6"
     d="m 123.4,82.5 c -0.4,0.4 -0.9,0.6 -1.8,0.6 h -1.1 l 0.9,-4.1 h 0.9 c 0.6,0 1,0.1 1.2,0.3 0.2,0.2 0.4,0.6 0.4,1.2 0,0.9 -0.1,1.6 -0.5,2 m 2.1,-4.6 c -0.6,-0.6 -1.6,-0.8 -3.1,-0.8 h -3.3 l -2.9,14 h 2.6 l 1.2,-5.9 h 0.2 1.1 c 1.2,0 2,-0.1 2.6,-0.3 0.6,-0.2 1.1,-0.5 1.5,-1 0.3,-0.4 0.6,-0.9 0.8,-1.4 0.2,-0.5 0.3,-1.1 0.3,-1.8 0,-1.3 -0.3,-2.3 -1,-2.8"
     clip-path="url(#f)"
     id="path48"
     inkscape:connector-curvature="0"
     style="fill:#007d47"
     transform="matrix(1.6825486,0,0,1.6825486,84.03113,264.19002)" /><polygon
     class="st3"
     points="186.7,77.1 184.3,77.1 183.9,79.2 186.3,79.2 "
     id="polygon50"
     style="fill:#007d47"
     transform="matrix(1.6825486,0,0,1.6825486,84.03113,264.19002)" /><defs
     id="defs53"><rect
       id="e"
       width="316.20001"
       height="102"
       x="0"
       y="0" /></defs><clipPath
     id="d"><use
       xlink:href="#e"
       id="use55"
       x="0"
       y="0"
       width="100%"
       height="100%" /></clipPath><path
     class="st7"
     d="m 138.6,83.7 c 0,0.2 -0.1,0.5 -0.1,0.8 H 136 c 0.1,-0.9 0.4,-1.5 0.6,-1.9 0.2,-0.4 0.6,-0.5 1.1,-0.5 0.3,0 0.6,0.1 0.8,0.3 0.2,0.2 0.3,0.4 0.3,0.8 -0.1,0 -0.1,0.2 -0.2,0.5 m -0.8,-3.4 c -1,0 -1.7,0.2 -2.3,0.6 -0.6,0.4 -1,1 -1.4,1.9 -0.2,0.4 -0.3,0.9 -0.5,1.6 -0.1,0.7 -0.3,1.4 -0.4,2.3 0,0.3 -0.1,0.6 -0.1,0.9 v 0.8 c 0,1 0.3,1.8 0.8,2.3 0.5,0.5 1.4,0.8 2.5,0.8 1.1,0 2,-0.3 2.6,-0.9 0.6,-0.6 1,-1.6 1.1,-2.9 h -2.2 c -0.1,0.7 -0.2,1.2 -0.5,1.5 -0.2,0.3 -0.6,0.5 -1,0.5 -0.4,0 -0.7,-0.1 -0.9,-0.3 -0.2,-0.2 -0.3,-0.5 -0.3,-1 0,-0.2 0,-0.5 0.1,-0.9 0.1,-0.4 0.1,-0.8 0.2,-1.3 h 4.8 c 0.1,-0.6 0.2,-1.1 0.3,-1.6 0.1,-0.5 0.1,-0.9 0.1,-1.3 0,-1 -0.2,-1.7 -0.8,-2.2 -0.2,-0.6 -1,-0.8 -2.1,-0.8"
     clip-path="url(#d)"
     id="path58"
     inkscape:connector-curvature="0"
     style="fill:#007d47"
     transform="matrix(1.6825486,0,0,1.6825486,84.03113,264.19002)" /><path
     class="st7"
     d="m 286.5,85.2 c -0.1,0.8 -0.3,1.6 -0.6,2.6 -0.2,0.7 -0.4,1.2 -0.6,1.4 -0.2,0.3 -0.5,0.4 -0.9,0.4 -0.4,0 -0.7,-0.1 -0.9,-0.3 -0.2,-0.2 -0.3,-0.5 -0.3,-1 0,-0.4 0.1,-1 0.2,-1.8 0.1,-0.8 0.3,-1.7 0.6,-2.6 0.2,-0.7 0.4,-1.2 0.6,-1.4 0.2,-0.3 0.5,-0.4 0.9,-0.4 0.4,0 0.7,0.1 0.9,0.3 0.2,0.2 0.3,0.6 0.3,1 0,0.4 -0.1,1 -0.2,1.8 m -0.9,-4.9 c -0.7,0 -1.3,0.1 -1.8,0.4 -0.5,0.3 -0.9,0.6 -1.3,1.1 -0.3,0.4 -0.5,0.9 -0.7,1.4 -0.2,0.5 -0.4,1.3 -0.5,2.3 -0.1,0.6 -0.2,1.1 -0.2,1.5 -0.1,0.4 -0.1,0.8 -0.1,1.1 0,1.1 0.3,1.9 0.8,2.5 0.6,0.5 1.4,0.8 2.5,0.8 0.7,0 1.3,-0.1 1.8,-0.4 0.5,-0.3 0.9,-0.6 1.2,-1.1 0.3,-0.4 0.5,-0.9 0.7,-1.5 0.2,-0.6 0.4,-1.3 0.6,-2.1 0.1,-0.5 0.2,-1 0.2,-1.5 0,-0.4 0.1,-0.9 0.1,-1.2 0,-1.1 -0.3,-1.9 -0.8,-2.4 -0.5,-0.6 -1.4,-0.9 -2.5,-0.9"
     clip-path="url(#d)"
     id="path60"
     inkscape:connector-curvature="0"
     style="fill:#007d47"
     transform="matrix(1.6825486,0,0,1.6825486,84.03113,264.19002)" /><path
     class="st7"
     d="m 133.1,80.3 h -0.2 c -0.6,0 -1.1,0.2 -1.5,0.5 -0.4,0.3 -0.8,0.8 -1,1.5 h -0.1 l 0.4,-1.6 h -2.2 L 126.2,91 h 2.4 l 1.3,-6.2 c 0.1,-0.7 0.4,-1.2 0.7,-1.5 0.3,-0.3 0.8,-0.4 1.4,-0.4 h 0.3 0.3 l 0.5,-2.7 c 0.1,0.1 0,0.1 0,0.1"
     clip-path="url(#d)"
     id="path62"
     inkscape:connector-curvature="0"
     style="fill:#007d47"
     transform="matrix(1.6825486,0,0,1.6825486,84.03113,264.19002)" /><polygon
     class="st3"
     points="307.5,88.6 306.9,91 309.3,91 309.8,88.6 "
     id="polygon64"
     style="fill:#007d47"
     transform="matrix(1.6825486,0,0,1.6825486,84.03113,264.19002)" /><defs
     id="defs67"><rect
       id="c"
       width="316.20001"
       height="102"
       x="0"
       y="0" /></defs><clipPath
     id="n"><use
       xlink:href="#c"
       id="use69"
       x="0"
       y="0"
       width="100%"
       height="100%" /></clipPath><path
     class="st8"
     d="m 212.9,85.6 c -0.2,0.9 -0.4,1.8 -0.7,2.6 -0.1,0.4 -0.3,0.7 -0.6,0.8 -0.2,0.2 -0.5,0.3 -0.8,0.3 -0.3,0 -0.5,-0.1 -0.6,-0.3 -0.2,-0.2 -0.2,-0.5 -0.2,-0.8 0,-0.6 0.1,-1.2 0.2,-2 0.1,-0.7 0.3,-1.5 0.6,-2.3 0.2,-0.7 0.4,-1.2 0.7,-1.4 0.2,-0.3 0.5,-0.4 0.9,-0.4 0.3,0 0.5,0.1 0.7,0.3 0.1,0.2 0.2,0.5 0.2,1 -0.1,0.6 -0.2,1.3 -0.4,2.2 m 0.3,-5.3 c -0.5,0 -0.9,0.1 -1.2,0.3 -0.4,0.2 -0.7,0.6 -1,1.1 l 0.2,-1.1 h -2.1 l -2.9,13.9 h 2.4 l 1,-4.8 c 0.2,0.5 0.4,0.9 0.7,1.1 0.3,0.3 0.7,0.4 1.2,0.4 0.6,0 1.2,-0.2 1.7,-0.5 0.5,-0.4 0.9,-0.9 1.2,-1.7 0.2,-0.4 0.3,-0.9 0.5,-1.5 0.2,-0.6 0.3,-1.2 0.4,-2 0.1,-0.6 0.2,-1.1 0.2,-1.4 0,-0.3 0.1,-0.6 0.1,-0.9 0,-1 -0.2,-1.8 -0.6,-2.3 -0.4,-0.4 -1,-0.6 -1.8,-0.6"
     clip-path="url(#n)"
     id="path72"
     inkscape:connector-curvature="0"
     style="fill:#007d47"
     transform="matrix(1.6825486,0,0,1.6825486,84.03113,264.19002)" /><path
     class="st8"
     d="m 169.4,85.7 c -0.2,0.9 -0.4,1.8 -0.7,2.5 -0.1,0.4 -0.3,0.6 -0.6,0.8 -0.2,0.2 -0.5,0.3 -0.8,0.3 -0.3,0 -0.5,-0.1 -0.7,-0.3 -0.2,-0.2 -0.2,-0.5 -0.2,-0.9 0,-0.3 0,-0.6 0.1,-1 0.1,-0.4 0.2,-0.9 0.3,-1.6 0.1,-0.5 0.2,-1 0.3,-1.3 0.1,-0.4 0.2,-0.7 0.3,-0.9 0.2,-0.4 0.3,-0.7 0.6,-0.9 0.2,-0.2 0.5,-0.3 0.8,-0.3 0.3,0 0.5,0.1 0.7,0.3 0.1,0.2 0.2,0.5 0.2,1 0,0.6 -0.1,1.4 -0.3,2.3 m 0.3,-5.4 c -0.4,0 -0.7,0.1 -1,0.3 -0.3,0.2 -0.6,0.4 -0.8,0.7 l 0.9,-4.2 h -2.4 L 163.5,91 h 2.4 l 0.2,-1.2 c 0.2,0.5 0.4,0.9 0.7,1.1 0.3,0.3 0.7,0.4 1.2,0.4 0.6,0 1.2,-0.2 1.6,-0.5 0.5,-0.4 0.9,-0.9 1.2,-1.7 0.2,-0.4 0.4,-0.9 0.5,-1.5 0.2,-0.6 0.3,-1.2 0.4,-1.9 0.1,-0.5 0.1,-0.9 0.2,-1.3 0,-0.4 0.1,-0.7 0.1,-1 0,-1 -0.2,-1.8 -0.6,-2.3 -0.3,-0.6 -0.9,-0.8 -1.7,-0.8"
     clip-path="url(#n)"
     id="path74"
     inkscape:connector-curvature="0"
     style="fill:#007d47"
     transform="matrix(1.6825486,0,0,1.6825486,84.03113,264.19002)" /><path
     class="st8"
     d="m 231.4,80.3 c -0.6,0 -1.1,0.2 -1.5,0.5 -0.4,0.3 -0.8,0.8 -1,1.5 h -0.1 l 0.4,-1.6 H 227 L 224.8,91 h 2.4 l 1.3,-6.2 c 0.1,-0.7 0.4,-1.2 0.7,-1.5 0.3,-0.3 0.8,-0.4 1.4,-0.4 h 0.3 0.3 l 0.5,-2.7 h -0.2 c 0.1,0.1 0,0.1 -0.1,0.1"
     clip-path="url(#n)"
     id="path76"
     inkscape:connector-curvature="0"
     style="fill:#007d47"
     transform="matrix(1.6825486,0,0,1.6825486,84.03113,264.19002)" /><path
     class="st8"
     d="m 242.5,85.2 c -0.1,0.8 -0.3,1.6 -0.6,2.6 -0.2,0.7 -0.4,1.2 -0.6,1.4 -0.2,0.3 -0.5,0.4 -0.9,0.4 -0.4,0 -0.7,-0.1 -0.9,-0.3 -0.2,-0.2 -0.3,-0.5 -0.3,-1 0,-0.4 0.1,-1 0.2,-1.8 0.1,-0.8 0.3,-1.7 0.6,-2.6 0.2,-0.7 0.4,-1.2 0.6,-1.4 0.2,-0.3 0.5,-0.4 0.9,-0.4 0.4,0 0.7,0.1 0.9,0.3 0.2,0.2 0.3,0.6 0.3,1 0,0.4 0,1 -0.2,1.8 m -0.9,-4.9 c -0.7,0 -1.3,0.1 -1.8,0.4 -0.5,0.3 -0.9,0.6 -1.3,1.1 -0.3,0.4 -0.5,0.9 -0.7,1.4 -0.2,0.5 -0.4,1.3 -0.6,2.3 -0.1,0.6 -0.2,1.1 -0.2,1.5 -0.1,0.4 -0.1,0.8 -0.1,1.1 0,1.1 0.3,1.9 0.8,2.5 0.6,0.5 1.4,0.8 2.5,0.8 0.7,0 1.3,-0.1 1.8,-0.4 0.5,-0.3 0.9,-0.6 1.2,-1.1 0.3,-0.4 0.5,-0.9 0.7,-1.5 0.2,-0.6 0.4,-1.3 0.6,-2.1 0.1,-0.5 0.2,-1 0.2,-1.5 0.1,-0.4 0.1,-0.9 0.1,-1.2 0,-1.1 -0.3,-1.9 -0.8,-2.4 -0.4,-0.6 -1.2,-0.9 -2.4,-0.9"
     clip-path="url(#n)"
     id="path78"
     inkscape:connector-curvature="0"
     style="fill:#007d47"
     transform="matrix(1.6825486,0,0,1.6825486,84.03113,264.19002)" /><path
     class="st8"
     d="m 265.1,84.4 h -2.5 c 0,0 0.1,-2.3 1.7,-2.4 1.5,-0.1 0.8,2.4 0.8,2.4 m -0.8,-4.1 c -1,0 -1.7,0.2 -2.3,0.6 -0.6,0.4 -1,1 -1.4,1.9 -0.2,0.4 -0.3,0.9 -0.5,1.6 -0.1,0.7 -0.3,1.4 -0.4,2.3 0,0.3 -0.1,0.6 -0.1,0.9 v 0.8 c 0,1 0.3,1.8 0.8,2.3 0.5,0.5 1.4,0.8 2.5,0.8 1.1,0 2,-0.3 2.6,-0.9 0.6,-0.6 1,-1.6 1.1,-2.9 h -2.2 c -0.1,0.7 -0.2,1.2 -0.5,1.5 -0.2,0.3 -0.6,0.5 -1,0.5 -0.4,0 -0.7,-0.1 -0.8,-0.3 -0.2,-0.2 -0.3,-0.5 -0.3,-1 0,-0.2 0,-0.5 0.1,-0.9 0.1,-0.4 0.1,-0.8 0.2,-1.3 h 4.8 c 0.1,-0.6 0.2,-1.1 0.3,-1.6 0.1,-0.5 0.1,-0.9 0.1,-1.3 0,-1 -0.3,-1.7 -0.8,-2.2 -0.3,-0.6 -1.1,-0.8 -2.2,-0.8"
     clip-path="url(#n)"
     id="path80"
     inkscape:connector-curvature="0"
     style="fill:#007d47"
     transform="matrix(1.6825486,0,0,1.6825486,84.03113,264.19002)" /><path
     class="st8"
     d="m 256,84.6 c -0.1,0.4 -0.2,0.9 -0.3,1.5 -0.1,0.5 -0.2,1 -0.3,1.4 -0.1,0.4 -0.2,0.7 -0.3,0.9 -0.1,0.4 -0.3,0.7 -0.6,0.9 -0.2,0.2 -0.5,0.3 -0.8,0.3 -0.3,0 -0.5,-0.1 -0.7,-0.3 -0.1,-0.2 -0.2,-0.5 -0.2,-1 0,-0.7 0.1,-1.5 0.3,-2.4 0.2,-0.9 0.4,-1.7 0.7,-2.5 0.1,-0.4 0.3,-0.6 0.6,-0.8 0.2,-0.2 0.5,-0.3 0.8,-0.3 0.3,0 0.5,0.1 0.7,0.3 0.2,0.2 0.2,0.5 0.2,0.9 0,0.3 0,0.7 -0.1,1.1 m 1.5,-7.5 -1,4.8 c -0.1,-0.5 -0.4,-0.8 -0.7,-1.1 -0.3,-0.2 -0.7,-0.4 -1.2,-0.4 -0.6,0 -1.2,0.2 -1.6,0.6 -0.5,0.4 -0.9,0.9 -1.2,1.7 -0.2,0.4 -0.4,0.9 -0.5,1.5 -0.2,0.6 -0.3,1.2 -0.4,1.9 -0.1,0.5 -0.1,0.9 -0.2,1.3 0,0.4 -0.1,0.7 -0.1,1 0,1 0.2,1.8 0.6,2.3 0.4,0.5 1,0.8 1.7,0.8 0.5,0 0.9,-0.1 1.3,-0.3 0.4,-0.2 0.7,-0.6 1,-1.1 l -0.2,1.1 h 2.1 L 260,77.3 h -2.5 z"
     clip-path="url(#n)"
     id="path82"
     inkscape:connector-curvature="0"
     style="fill:#007d47"
     transform="matrix(1.6825486,0,0,1.6825486,84.03113,264.19002)" /><path
     class="st8"
     d="m 236.1,80.6 0.6,-3 h -2.4 l -0.6,3 h -0.9 l -0.3,1.6 h 0.9 l -1.3,6.1 C 232,88.6 232,88.8 232,89 v 0.6 c 0,0.5 0.2,0.9 0.5,1.2 0.3,0.3 0.8,0.4 1.4,0.4 h 0.6 c 0.2,0 0.4,0 0.6,-0.1 l 0.4,-1.8 h -0.2 c -0.3,0 -0.5,0 -0.6,-0.1 -0.1,-0.1 -0.2,-0.2 -0.2,-0.4 v -0.2 -0.1 l 1.3,-6.2 h 1.1 l 0.3,-1.6 h -1.1 z"
     clip-path="url(#n)"
     id="path84"
     inkscape:connector-curvature="0"
     style="fill:#007d47"
     transform="matrix(1.6825486,0,0,1.6825486,84.03113,264.19002)" /><path
     class="st8"
     d="m 222,83.7 c 0,0.2 -0.1,0.5 -0.1,0.8 h -2.5 c 0.2,-0.9 0.4,-1.5 0.6,-1.9 0.3,-0.4 0.6,-0.5 1.1,-0.5 0.3,0 0.6,0.1 0.8,0.3 0.2,0.2 0.3,0.4 0.3,0.8 -0.1,0 -0.2,0.2 -0.2,0.5 m -0.8,-3.4 c -1,0 -1.7,0.2 -2.3,0.6 -0.6,0.4 -1,1 -1.4,1.9 -0.2,0.4 -0.3,0.9 -0.5,1.6 -0.1,0.7 -0.3,1.4 -0.4,2.3 0,0.3 -0.1,0.6 -0.1,0.9 v 0.8 c 0,1 0.3,1.8 0.8,2.3 0.5,0.5 1.4,0.8 2.5,0.8 1.1,0 2,-0.3 2.6,-0.9 0.6,-0.6 1,-1.6 1.1,-2.9 h -2.2 c -0.1,0.7 -0.2,1.2 -0.5,1.5 -0.2,0.3 -0.6,0.5 -1,0.5 -0.4,0 -0.7,-0.1 -0.9,-0.3 -0.2,-0.2 -0.3,-0.5 -0.3,-1 0,-0.2 0,-0.5 0.1,-0.9 0.1,-0.4 0.1,-0.8 0.2,-1.3 h 4.8 c 0.1,-0.6 0.2,-1.1 0.3,-1.6 0.1,-0.5 0.1,-0.9 0.1,-1.3 0,-1 -0.2,-1.7 -0.7,-2.2 -0.3,-0.6 -1.1,-0.8 -2.2,-0.8"
     clip-path="url(#n)"
     id="path86"
     inkscape:connector-curvature="0"
     style="fill:#007d47"
     transform="matrix(1.6825486,0,0,1.6825486,84.03113,264.19002)" /><polygon
     class="st3"
     points="189.3,87.9 190,91 192.4,91 190.8,85.9 194.2,80.6 191.6,80.6 190,83.4 189.4,80.6 187.1,80.6 188.5,85.5 185,91 187.7,91 "
     id="polygon88"
     style="fill:#007d47"
     transform="matrix(1.6825486,0,0,1.6825486,84.03113,264.19002)" /><polygon
     class="st3"
     points="183.6,80.6 181.4,91 183.8,91 186,80.6 "
     id="polygon90"
     style="fill:#007d47"
     transform="matrix(1.6825486,0,0,1.6825486,84.03113,264.19002)" /><defs
     id="defs93"><rect
       id="m"
       width="316.20001"
       height="102"
       x="0"
       y="0" /></defs><clipPath
     id="l"><use
       xlink:href="#m"
       id="use95"
       x="0"
       y="0"
       width="100%"
       height="100%" /></clipPath><path
     class="st9"
     d="m 199.4,85.2 c -0.1,0.8 -0.3,1.6 -0.6,2.6 -0.2,0.7 -0.4,1.2 -0.6,1.4 -0.2,0.3 -0.5,0.4 -0.9,0.4 -0.4,0 -0.7,-0.1 -0.9,-0.3 -0.2,-0.2 -0.3,-0.5 -0.3,-1 0,-0.4 0.1,-1 0.2,-1.8 0.1,-0.8 0.3,-1.7 0.6,-2.6 0.2,-0.7 0.4,-1.2 0.6,-1.4 0.2,-0.3 0.5,-0.4 0.9,-0.4 0.4,0 0.7,0.1 0.9,0.3 0.2,0.2 0.3,0.6 0.3,1 0,0.4 -0.1,1 -0.2,1.8 m -0.9,-4.9 c -0.7,0 -1.3,0.1 -1.8,0.4 -0.5,0.3 -0.9,0.6 -1.3,1.1 -0.3,0.4 -0.5,0.9 -0.6,1.4 -0.2,0.5 -0.4,1.3 -0.6,2.3 -0.1,0.6 -0.2,1.1 -0.2,1.5 -0.1,0.4 -0.1,0.8 -0.1,1.1 0,1.1 0.3,1.9 0.8,2.5 0.6,0.5 1.4,0.8 2.5,0.8 0.7,0 1.3,-0.1 1.8,-0.4 0.5,-0.3 0.9,-0.6 1.2,-1.1 0.3,-0.4 0.5,-0.9 0.7,-1.5 0.2,-0.6 0.4,-1.3 0.6,-2.1 0.1,-0.5 0.2,-1 0.2,-1.5 0,-0.4 0.1,-0.9 0.1,-1.2 0,-1.1 -0.3,-1.9 -0.8,-2.4 -0.5,-0.6 -1.4,-0.9 -2.5,-0.9"
     clip-path="url(#l)"
     id="path98"
     inkscape:connector-curvature="0"
     style="fill:#007d47"
     transform="matrix(1.6825486,0,0,1.6825486,84.03113,264.19002)" /><path
     class="st9"
     d="m 177.3,88.9 c -0.3,0.5 -0.7,0.7 -1.2,0.7 -0.3,0 -0.6,-0.1 -0.7,-0.3 -0.2,-0.2 -0.3,-0.5 -0.3,-0.9 0,-0.8 0.7,-1.5 2.2,-2.1 0.3,-0.1 0.6,-0.3 0.8,-0.3 -0.3,1.5 -0.6,2.5 -0.8,2.9 m 2.8,-8 c -0.6,-0.4 -1.4,-0.7 -2.5,-0.7 -1.1,0 -2,0.3 -2.7,0.8 -0.6,0.5 -1,1.4 -1.2,2.5 h 2.3 c 0.1,-0.6 0.3,-1 0.5,-1.2 0.2,-0.2 0.6,-0.4 1,-0.4 0.3,0 0.6,0.1 0.8,0.3 0.2,0.2 0.3,0.4 0.3,0.7 0,0.9 -0.8,1.5 -2.5,1.9 -0.1,0 -0.2,0.1 -0.3,0.1 -1.1,0.3 -1.8,0.7 -2.3,1.2 -0.5,0.6 -0.7,1.3 -0.7,2.3 0,0.9 0.2,1.6 0.7,2.1 0.5,0.5 1.1,0.7 1.9,0.7 0.4,0 0.8,-0.1 1.2,-0.3 0.3,-0.2 0.7,-0.5 0.9,-0.9 l -0.1,0.8 h 2.2 c 0,-0.3 0,-0.6 0.1,-0.8 0,-0.2 0.1,-0.4 0.1,-0.6 l 1.2,-5.8 c 0,-0.2 0.1,-0.4 0.1,-0.6 v -0.4 c -0.2,-0.6 -0.4,-1.2 -1,-1.7"
     clip-path="url(#l)"
     id="path100"
     inkscape:connector-curvature="0"
     style="fill:#007d47"
     transform="matrix(1.6825486,0,0,1.6825486,84.03113,264.19002)" /><polygon
     class="st3"
     points="276,88.3 275.8,80.6 273.4,80.6 274.2,91 276.9,91 281.3,80.6 278.8,80.6 "
     id="polygon102"
     style="fill:#007d47"
     transform="matrix(1.6825486,0,0,1.6825486,84.03113,264.19002)" /><defs
     id="defs105"><rect
       id="k"
       width="316.20001"
       height="102"
       x="0"
       y="0" /></defs><clipPath
     id="j"><use
       xlink:href="#k"
       id="use107"
       x="0"
       y="0"
       width="100%"
       height="100%" /></clipPath><path
     class="st10"
     d="m 189,63 c -1,1.4 -2.3,2.2 -3.9,2.2 -1.3,0 -2.2,-0.4 -2.9,-1.3 -0.7,-0.9 -1,-2.1 -1,-3.7 0,-2.3 0.5,-4.1 1.5,-5.6 1,-1.5 2.2,-2.2 3.7,-2.2 1.3,0 2.3,0.4 3,1.3 0.7,0.9 1.1,2.1 1.1,3.7 0,2.3 -0.5,4.2 -1.5,5.6 m -29.8,0.2 c -0.9,1.6 -2.2,2.4 -3.8,2.4 -1.4,0 -2.4,-0.4 -3,-1.3 -0.6,-0.9 -1,-2.2 -1,-3.9 0,-2.8 0.5,-5.1 1.4,-6.6 0.9,-1.6 2.2,-2.3 3.9,-2.3 1.3,0 2.3,0.5 3,1.4 0.6,0.9 1,2.3 1,4.1 -0.1,2.5 -0.6,4.6 -1.5,6.2 M 193.4,35.5 191.6,48 c -1,-1.3 -2.1,-2.3 -3.4,-2.9 -1.3,-0.6 -2.8,-1 -4.5,-1 -3.6,0 -6.6,1.5 -9,4.6 -1.7,2.2 -2.8,4.7 -3.3,7.6 -0.1,-3.7 -1.4,-6.6 -3.8,-8.8 -2.6,-2.3 -6.1,-3.5 -10.5,-3.5 -4.9,0 -8.8,1.4 -11.8,4.3 -2.9,2.9 -4.4,6.7 -4.4,11.5 0,4 1.3,7.2 3.9,9.6 2.6,2.4 6.1,3.5 10.6,3.5 5,0 8.9,-1.4 11.8,-4.2 2.1,-2.1 3.4,-4.7 4,-7.9 0.1,3.5 1.1,6.4 2.8,8.5 1.9,2.3 4.4,3.5 7.6,3.5 1.7,0 3.3,-0.4 4.7,-1.1 1.4,-0.7 2.7,-1.8 3.7,-3.2 l -0.4,3.5 h 9.2 l 5,-36.5 z"
     clip-path="url(#j)"
     id="path110"
     inkscape:connector-curvature="0"
     style="fill:#007d47"
     transform="matrix(1.6825486,0,0,1.6825486,84.03113,264.19002)" /></svg>